# xmcd
#
# Track frame offsets:
#	150
#	12180
#	25394
#	41302
#	53972
#	66831
#	87582
#	94662
#	113096
#	126821
#	137636
#	154767
#	170162
#	182214
#	195632
#	205275
#	225549
#	256276
#	268381
#	284499
#	295955
#	310191
#	323364
#	337171
#
# Disc length: 4660 seconds
#
# Revision: 2
# Processed by: cddbd v1.5.2PL0 Copyright (c) Steve Scherf et al.
# Submitted via: audiograbber 1.83.01
#
DISCID=68123218
DTITLE=Sammy Davis Jr. - The Best Of Sammy Davis Jr.
DYEAR=2005
DGENRE=Easy Listening
TTITLE0=If My Friends Could See Me Now
TTITLE1=I've Gotta Be Me
TTITLE2=Like Young
TTITLE3=We'll Be Together Again
TTITLE4=Talk To The Animals
TTITLE5=The More I See You/Second Time Around
TTITLE6=I'm A Brass Band
TTITLE7=The Shadow Of Your Smile (with Laurindo Almeida)
TTITLE8=I Have Dreamed
TTITLE9=I've Got You Under My Skin
TTITLE10=The Folks Who Live On The Hill (with Laurindo Almeida)
TTITLE11=This Guy's In Love With You
TTITLE12=The Impossible Dream
TTITLE13=Come Back To Me
TTITLE14=With A Song In My Heart
TTITLE15=The Lady Is A Tramp
TTITLE16=Medley: Lonesome Road/Gonna Build A Mountain/Yes I Can/I Want To Be Wi
TTITLE16=th You/Too Close For Comfort/Something's Gotta Give/Hey There
TTITLE17=On A Clear Day
TTITLE18=The Birth Of The Blues
TTITLE19=As Long As She Needs Me
TTITLE20=Bye Bye Blackbird
TTITLE21=You're Nobody Till Somebody Loves You
TTITLE22=What Kind Of Fool Am I?
TTITLE23=Where Or When
EXTD=
EXTT0=
EXTT1=
EXTT2=
EXTT3=
EXTT4=
EXTT5=
EXTT6=
EXTT7=
EXTT8=
EXTT9=
EXTT10=
EXTT11=
EXTT12=
EXTT13=
EXTT14=
EXTT15=
EXTT16=
EXTT17=
EXTT18=
EXTT19=
EXTT20=
EXTT21=
EXTT22=
EXTT23=
PLAYORDER=
